<svg width="63" height="50" viewBox="0 0 63 50" fill="none" xmlns="http://www.w3.org/2000/svg">
<path fill-rule="evenodd" clip-rule="evenodd" d="M13.0367 0C9.45536 0 6.80533 3.13462 6.924 6.53404C7.03788 9.79996 6.88992 14.0298 5.8251 17.4792C4.75649 20.9384 2.95049 23.1304 0 23.4117V26.5883C2.95049 26.8702 4.75649 29.0612 5.82498 32.5208C6.88992 35.9702 7.03776 40.2 6.92388 43.466C6.80521 46.8649 9.45523 50 13.0372 50H49.7341C53.3154 50 55.965 46.8654 55.8463 43.466C55.7324 40.2 55.8804 35.9702 56.9452 32.5208C58.0138 29.0612 59.8154 26.8694 62.766 26.5883V23.4117C59.8155 23.1298 58.0139 20.9388 56.9452 17.4792C55.8803 14.0303 55.7324 9.79996 55.8463 6.53404C55.965 3.13511 53.3154 0 49.7341 0H13.0362H13.0367ZM42.5533 30.7783C42.5533 35.4591 39.0618 38.2979 33.2676 38.2979H23.4042C23.1221 38.2979 22.8515 38.1859 22.652 37.9863C22.4525 37.7868 22.3404 37.5162 22.3404 37.2341V12.766C22.3404 12.4839 22.4525 12.2133 22.652 12.0138C22.8515 11.8143 23.1221 11.7022 23.4042 11.7022H33.2114C38.0428 11.7022 41.2136 14.3192 41.2136 18.3372C41.2136 21.1574 39.0805 23.6822 36.3631 24.1245V24.2716C40.0624 24.6773 42.5533 27.2395 42.5533 30.7783ZM32.1921 15.0745H26.5682V23.0183H31.3049C34.9667 23.0183 36.9857 21.5438 36.9857 18.9083C36.9854 16.4383 35.2495 15.0745 32.1921 15.0745ZM26.5682 26.1702V34.9245H32.399C36.2116 34.9245 38.231 33.3947 38.231 30.5197C38.231 27.6448 36.1549 26.1698 32.1539 26.1698H26.5682V26.1702Z" fill="#7952B3"/>
</svg>
